<?xml version="1.0" encoding="utf-8"?>
<!-- Generator: Adobe Illustrator 24.0.1, SVG Export Plug-In . SVG Version: 6.00 Build 0)  -->
<svg version="1.1" id="Layer_1" xmlns="http://www.w3.org/2000/svg" xmlns:xlink="http://www.w3.org/1999/xlink" x="0px" y="0px"
	 viewBox="0 0 612 792" style="enable-background:new 0 0 612 792;" xml:space="preserve">
<style type="text/css">
	.st0{fill:#FFFFFF;}
	.st1{fill:#FCD700;}
	.st2{fill:#135275;}
</style>
<rect class="st0" width="612" height="792"/>
<g>
	<g>
		<g>
			<path class="st1" d="M180.46,545.78h-27.54c3.58-64.15-0.77-148.67-14.25-185.2c-8.09-21.94-25.43-33.19-39.26-38.88
				c-10.49-4.31-15.67-15.86-11.41-26.17l0,0c4.66-11.29,19.62-14.23,28.31-5.51c13.68,13.71,31.32,35.61,41.68,63.74
				C172.41,392.84,184.19,478.92,180.46,545.78z"/>
		</g>
		<g>
			<path class="st1" d="M334.55,546.82l-26.58,0.67c2.58-117.6-2.2-244.91-55.13-250.42c-10.88-1.13-63.47,15.66-98.75,50.64
				l-14.27-18.73c40.82-40.49,101.46-53.34,114.82-51.91C315.87,283.44,327.91,420.12,334.55,546.82z"/>
		</g>
		<g>
			<path class="st1" d="M429.29,454.49c-7.73-33.02-8.29-131.43-47.9-146.96c-6.3-2.47-41.45-19.08-83.03,16.62l-14.37-27.52
				c20.47-10.83,47.9-23.89,60.14-23.37c0,0,23.02-2.28,40.45,3.71c43.64,14.99,57.19,100.57,62.8,155.2
				c1.65,16.04,7.19,40.01,11.71,56.08c8.33,29.63,21.29,39.47,54.29,24.41c46.81-21.36,47.4-74.96,48.26-124.81
				c1.6-93.32-51.31-163.47-136.61-203.39c-108.18-50.64-196.85-16.3-216.09-8.31c-23.34,9.7-100.26,30.98-140.51,125.67
				c-34.31,80.73-25.88,164.12,23.42,234.72c10.89,15.6,47.7,83.6,134.12,94.51c91.24,11.52,172.63-33.16,207.93-0.29
				c2.12,1.97,7.16,6.22,6.08,11.23c-3.65,16.95-100.61,34.71-142.15,34.57c-23.33-0.08-37.72-2.43-39.24-2.63
				c0,0-19.02-2.57-37.66-7.66C119.77,638.69,62.7,557.81,62.7,557.81C11.31,484.98-0.73,386.4,35.56,301
				c42.23-99.38,131.8-138.26,155.87-148.26c19.69-8.18,128.29-50.85,241.69,2.28c88.6,41.51,158.03,134.63,154.42,234.04
				c-2.13,58.68-18.78,136.19-76.08,149.7c-35.3,8.32-51.45,4.63-69.29-33.59C436.21,492.4,433.92,474.26,429.29,454.49z"/>
		</g>
	</g>
	<g>
		<g>
			<g>
				<path class="st2" d="M190.17,537.24h-27.54c3.58-64.15-0.77-148.67-14.25-185.2c-8.09-21.94-25.43-33.19-39.26-38.88
					c-10.49-4.31-15.67-15.86-11.41-26.17l0,0c4.66-11.29,19.62-14.23,28.31-5.51c13.68,13.71,31.32,35.61,41.68,63.74
					C182.12,384.3,193.89,470.38,190.17,537.24z"/>
			</g>
			<g>
				<path class="st2" d="M344.25,538.28l-26.58,0.67c2.58-117.6-2.2-244.91-55.13-250.42c-10.88-1.13-63.47,15.66-98.75,50.64
					l-14.27-18.73c40.82-40.49,101.46-53.34,114.82-51.91C325.58,274.91,337.62,411.59,344.25,538.28z"/>
			</g>
			<g>
				<path class="st2" d="M438.99,445.95c-7.73-33.02-8.29-131.43-47.9-146.96c-6.3-2.47-41.45-19.08-83.03,16.62l-14.37-27.52
					c20.47-10.83,47.9-23.89,60.14-23.37c0,0,23.02-2.28,40.45,3.71c43.64,14.99,57.19,100.57,62.8,155.2
					c1.65,16.04,7.19,40.01,11.71,56.08c8.33,29.63,21.29,39.47,54.29,24.41c46.81-21.36,47.4-74.96,48.26-124.81
					c1.6-93.32-51.31-163.47-136.61-203.39c-108.18-50.64-196.85-16.3-216.09-8.31c-23.34,9.7-100.26,30.98-140.51,125.67
					C43.82,374,52.26,457.39,101.55,528c10.89,15.6,47.7,83.6,134.12,94.51c91.24,11.52,172.63-33.16,207.93-0.29
					c2.12,1.97,7.16,6.22,6.08,11.23c-3.65,16.95-100.61,34.71-142.15,34.57c-23.33-0.08-37.72-2.43-39.24-2.63
					c0,0-19.02-2.57-37.66-7.66C129.48,630.15,72.41,549.27,72.4,549.27c-51.39-72.82-63.43-171.4-27.14-256.81
					C87.5,193.08,177.06,154.2,201.14,144.2c19.69-8.18,128.29-50.85,241.69,2.28c88.6,41.51,158.03,134.63,154.42,234.04
					c-2.13,58.68-18.78,136.19-76.08,149.7c-35.3,8.32-51.45,4.63-69.29-33.59C445.91,483.86,443.62,465.73,438.99,445.95z"/>
			</g>
		</g>
	</g>
</g>
</svg>
