<?xml version="1.0" encoding="utf-8"?>
<!-- Generator: Adobe Illustrator 24.0.1, SVG Export Plug-In . SVG Version: 6.00 Build 0)  -->
<svg version="1.1" id="Layer_1" xmlns="http://www.w3.org/2000/svg" xmlns:xlink="http://www.w3.org/1999/xlink" x="0px" y="0px"
	 viewBox="0 0 612 792" style="enable-background:new 0 0 612 792;" xml:space="preserve">
<style type="text/css">
	.st0{fill:#FFFFFF;}
	.st1{fill:#FEDA00;}
	.st2{fill:#125174;}
	.st3{fill:#FDD700;}
</style>
<rect class="st0" width="612" height="792"/>
<g>
	<g>
		<g>
			<polygon class="st1" points="12.29,94.05 12.29,689.71 125.47,689.41 125.48,250.72 225.44,503.68 354.94,500.85 453.09,255.07 
				453.09,689.41 562.88,689.41 565.46,91.22 382.4,94.05 289.26,373.95 184.81,94.05 			"/>
			<path class="st1" d="M9.72,692.54V91.22h176.82l102.59,274.91L380.6,91.25l187.45-2.9l-2.6,603.89H450.52V268.55l-93.88,235.09
				l-132.87,2.9l-95.72-242.21l0,427.9L9.72,692.54z M14.87,96.88v589.99l108.03-0.28l0-449.48l104.21,263.7l126.13-2.76
				l102.42-256.47v444.99h104.65l2.55-592.49l-178.66,2.76L289.4,381.77L183.08,96.88H14.87z"/>
		</g>
	</g>
	<g>
		<g>
			<polygon class="st2" points="46.53,74.34 46.53,670 159.71,669.7 159.71,231.01 259.68,483.97 389.18,481.14 487.33,235.36 
				487.33,669.7 597.12,669.7 599.7,71.51 416.64,74.34 323.5,354.24 219.05,74.34 			"/>
			<path class="st2" d="M43.96,672.83V71.51h176.82l102.59,274.91l91.47-274.88l187.45-2.9l-2.6,603.89H484.76V248.84l-93.88,235.09
				l-132.87,2.9l-95.72-242.21l0,427.9L43.96,672.83z M49.11,77.17v589.99l108.03-0.28l0-449.48l104.21,263.7l126.13-2.76
				L489.9,221.88v444.99h104.65l2.55-592.49l-178.66,2.76l-94.81,284.92L217.32,77.17H49.11z"/>
		</g>
	</g>
	<polygon class="st3" points="9.72,91.22 43.96,71.51 43.96,91.22 	"/>
	<polyline class="st3" points="380.6,91.25 414.83,71.54 408.42,90.82 	"/>
	<polyline class="st3" points="356.64,503.64 390.88,483.93 363.49,484.58 	"/>
	<polyline class="st3" points="599.02,672.53 564.79,692.24 563.74,672.53 	"/>
	<polyline class="st3" points="162.29,672.52 128.05,692.23 127.09,672.62 	"/>
</g>
</svg>
