<?xml version="1.0" encoding="utf-8"?>
<!-- Generator: Adobe Illustrator 24.0.1, SVG Export Plug-In . SVG Version: 6.00 Build 0)  -->
<svg version="1.1" id="Layer_1" xmlns="http://www.w3.org/2000/svg" xmlns:xlink="http://www.w3.org/1999/xlink" x="0px" y="0px"
	 viewBox="0 0 612 792" style="enable-background:new 0 0 612 792;" xml:space="preserve">
<style type="text/css">
	.st0{fill:#FFFFFF;}
	.st1{fill:#F5FBFD;}
	.st2{fill:#FCD900;}
	.st3{fill:#145174;}
	.st4{fill:#FBD603;}
</style>
<rect class="st0" width="612" height="792"/>
<g>
	<g>
		<path class="st1" d="M157.43,747.44h-15.27v-87.18c0-3.44,0.11-7.28,0.32-11.51c0.21-4.23,0.53-8.82,0.96-13.78h-0.37
			c-0.73,2.9-1.42,5.41-2.06,7.52c-0.64,2.11-1.27,3.81-1.87,5.08l-44.81,99.87h-7.5L42.11,648.3c-0.61-1.45-1.25-3.29-1.92-5.53
			c-0.67-2.24-1.34-4.83-2.01-7.79h-0.37c0.24,2.6,0.43,6.01,0.55,10.24c0.12,4.23,0.18,9.3,0.18,15.23v87H23.73V617.49h20.3
			l40.24,90.63c1.59,3.44,2.88,6.46,3.89,9.06c1.01,2.6,1.72,4.77,2.15,6.53h0.55c1.34-3.56,2.53-6.68,3.57-9.33
			c1.04-2.66,1.95-4.86,2.74-6.62l41.06-90.26h19.2V747.44z"/>
		<path class="st1" d="M283.89,704.4h-66.21c0.24,10.45,3.03,18.5,8.37,24.15s12.82,8.47,22.45,8.47c4.21,0,8.43-0.62,12.67-1.86
			c4.24-1.24,8.43-3.22,12.57-5.94l6.95,10.6c-5.3,3.38-10.61,5.86-15.91,7.43c-5.3,1.57-11.13,2.36-17.47,2.36
			c-14.14,0-25.18-4.17-33.11-12.51s-11.92-19.97-11.98-34.89s3.92-26.95,11.93-36.07c8.02-9.12,18.43-13.68,31.23-13.68
			c12.19,0,21.66,3.94,28.4,11.83c6.74,7.88,10.11,18.8,10.11,32.76V704.4z M268.52,692.25c-0.06-8.58-2.16-15.27-6.31-20.07
			c-4.15-4.8-9.85-7.2-17.1-7.2c-7.13,0-13.18,2.46-18.15,7.39c-4.97,4.92-8,11.55-9.1,19.89H268.52z"/>
		<path class="st1" d="M403.03,747.44h-15v-53.47c0-9.67-1.82-16.92-5.44-21.75c-3.63-4.83-9.07-7.25-16.32-7.25
			c-7.32,0-13.48,2.79-18.47,8.38c-5,5.59-7.5,12.76-7.5,21.52v52.56h-15V610.05h15v59.99h0.37c3.6-5.86,7.96-10.26,13.08-13.19
			s11-4.4,17.65-4.4c10.55,0,18.46,3.14,23.73,9.43c5.27,6.28,7.91,15.74,7.91,28.37V747.44z"/>
		<path class="st1" d="M525.74,747.44h-15v-14.68h-0.37c-3.11,5.62-7.07,9.83-11.89,12.64c-4.82,2.81-10.49,4.21-17.01,4.21
			c-11.16,0-19.52-3.29-25.1-9.88c-5.58-6.59-8.37-16.46-8.37-29.63v-55.46h14.91v53.11c0,9.79,1.89,17.13,5.67,22.02
			c3.78,4.89,9.45,7.34,17.01,7.34c7.32,0,13.34-2.67,18.06-8.02c4.72-5.35,7.09-12.34,7.09-20.98v-53.47h15V747.44z"/>
		<path class="st1" d="M574.74,747.44V610.05h15v137.39H574.74z"/>
	</g>
	<g>
		<g>
			<g>
				<polygon class="st2" points="9.14,51.33 9.14,593.98 123.54,593.71 123.54,194.06 224.58,424.51 355.47,421.93 454.67,198.02 
					454.67,593.71 565.64,593.71 568.24,48.75 383.22,51.33 289.08,306.33 183.51,51.33 				"/>
				<path class="st2" d="M6.54,596.56V48.75h178.71L288.94,299.2L381.4,48.78l189.46-2.64l-2.63,550.15H452.07V210.31l-94.89,214.17
					l-134.29,2.64l-96.75-220.66l0,389.82L6.54,596.56z M11.74,53.91V591.4l109.19-0.26l0-409.48L226.27,421.9l127.49-2.51
					l103.52-233.65v405.39h105.78l2.58-539.76l-180.58,2.52l-95.83,259.57L181.76,53.91H11.74z"/>
			</g>
		</g>
		<g>
			<g>
				<polygon class="st3" points="43.75,33.38 43.75,576.03 158.14,575.76 158.14,176.1 259.18,406.55 390.08,403.97 489.28,180.07 
					489.28,575.76 600.25,575.76 602.85,30.8 417.83,33.38 323.69,288.37 218.11,33.38 				"/>
				<path class="st3" d="M41.14,578.61V30.8h178.71l103.69,250.44L416,30.82l189.46-2.64l-2.63,550.15H486.68V192.35l-94.89,214.17
					l-134.29,2.64l-96.75-220.66l0,389.82L41.14,578.61z M46.35,35.96v537.49l109.19-0.26l0-409.48l105.33,240.24l127.49-2.51
					l103.52-233.65v405.39h105.78l2.58-539.76l-180.58,2.52L323.83,295.5L216.37,35.96H46.35z"/>
			</g>
		</g>
		<polygon class="st4" points="6.54,48.75 41.14,30.8 41.14,48.75 		"/>
		<polyline class="st4" points="381.4,48.78 416,30.82 409.52,48.39 		"/>
		<polyline class="st4" points="357.18,424.47 391.79,406.52 364.1,407.11 		"/>
		<polyline class="st4" points="602.17,578.33 567.57,596.29 566.5,578.33 		"/>
		<polyline class="st4" points="160.74,578.33 126.14,596.28 125.17,578.41 		"/>
	</g>
</g>
</svg>
