<?xml version="1.0" encoding="utf-8"?>
<!-- Generator: Adobe Illustrator 24.0.1, SVG Export Plug-In . SVG Version: 6.00 Build 0)  -->
<svg version="1.1" id="Layer_1" xmlns="http://www.w3.org/2000/svg" xmlns:xlink="http://www.w3.org/1999/xlink" x="0px" y="0px"
	 viewBox="0 0 612 792" style="enable-background:new 0 0 612 792;" xml:space="preserve">
<style type="text/css">
	.st0{fill:#FFFFFF;}
	.st1{fill:#F5FBFD;stroke:#F5FBFD;stroke-width:6;stroke-miterlimit:10;}
</style>
<rect y="-1.43" class="st0" width="612" height="792"/>
<g>
	<g>
		<path class="st1" d="M146.26,462.9h-13.64V360.83c0-4.03,0.09-8.52,0.29-13.48c0.19-4.95,0.48-10.33,0.86-16.13h-0.33
			c-0.65,3.4-1.27,6.33-1.84,8.81c-0.57,2.48-1.13,4.46-1.67,5.94L89.91,462.9h-6.7L43.29,346.82c-0.54-1.7-1.12-3.86-1.71-6.47
			c-0.6-2.62-1.2-5.66-1.8-9.13h-0.33c0.22,3.04,0.38,7.04,0.49,11.99c0.11,4.95,0.16,10.89,0.16,17.83V462.9H26.87V310.74H45
			l35.93,106.11c1.42,4.03,2.57,7.57,3.47,10.61c0.9,3.04,1.54,5.59,1.92,7.64h0.49c1.2-4.17,2.26-7.82,3.18-10.93
			c0.93-3.11,1.74-5.69,2.45-7.75l36.66-105.68h17.15V462.9z"/>
		<path class="st1" d="M275.9,412.5h-59.12c0.22,12.24,2.71,21.66,7.47,28.28c4.76,6.62,11.44,9.92,20.05,9.92
			c3.76,0,7.53-0.73,11.31-2.18c3.78-1.45,7.53-3.77,11.23-6.95l6.21,12.41c-4.74,3.96-9.47,6.86-14.21,8.7
			c-4.74,1.84-9.94,2.76-15.6,2.76c-12.63,0-22.48-4.88-29.56-14.64c-7.08-9.76-10.64-23.38-10.7-40.85
			c-0.05-17.47,3.5-31.55,10.66-42.23c7.16-10.68,16.45-16.02,27.89-16.02c10.89,0,19.34,4.62,25.36,13.85
			c6.01,9.23,9.02,22.02,9.02,38.36V412.5z M262.18,398.28c-0.05-10.04-1.93-17.88-5.63-23.5c-3.7-5.62-8.79-8.44-15.27-8.44
			c-6.37,0-11.77,2.88-16.21,8.65c-4.44,5.77-7.15,13.53-8.13,23.29H262.18z"/>
		<path class="st1" d="M382.29,462.9h-13.39v-62.6c0-11.32-1.62-19.81-4.86-25.47c-3.24-5.66-8.1-8.49-14.58-8.49
			c-6.53,0-12.03,3.27-16.5,9.81c-4.46,6.54-6.7,14.94-6.7,25.2v61.54h-13.39V302.04h13.39v70.24h0.33
			c3.21-6.86,7.1-12.01,11.68-15.44c4.57-3.43,9.83-5.15,15.76-5.15c9.42,0,16.48,3.68,21.19,11.04c4.71,7.36,7.06,18.43,7.06,33.21
			V462.9z"/>
		<path class="st1" d="M508.58,462.9h-13.39v-17.19h-0.33c-2.78,6.58-6.32,11.51-10.62,14.8c-4.3,3.29-9.36,4.93-15.19,4.93
			c-9.96,0-17.43-3.86-22.42-11.57c-4.98-7.71-7.47-19.27-7.47-34.7v-64.94h13.31v62.18c0,11.46,1.69,20.05,5.06,25.78
			c3.38,5.73,8.44,8.59,15.19,8.59c6.53,0,11.91-3.13,16.13-9.39c4.22-6.26,6.33-14.45,6.33-24.56v-62.6h13.39V462.9z"/>
		<path class="st1" d="M569.06,462.9V302.04h13.39V462.9H569.06z"/>
	</g>
</g>
</svg>
